<svg width="128" height="128" version="1.1" viewBox="0 0 128 128" xmlns="http://www.w3.org/2000/svg">
   <g fill-rule="evenodd">
      <path d="m5.6569 57.657 52.686 52.686a8 8 0 0 0 11.314 0l52.686-52.686a8 8 0 0 0 0-11.314l-20.686-20.686a19.314 19.314 0 0 0-13.657-5.6569h-48a19.314 19.314 0 0 0-13.657 5.6569l-20.686 20.686a8 8 0 0 0 0 11.314z" fill="#021e31"/>
      <path d="m35.029 36.971-12.201 12.201c-1.0438 1.0438-0.30453 2.8284 1.1716 2.8284h80c1.4761 0 2.2153-1.7847 1.1716-2.8284l-12.201-12.201c-1.811-1.811-4.2673-2.8284-6.8284-2.8284h-44.284c-2.5612 0-5.0174 1.0174-6.8284 2.8284zm-4.2011 25.858s20.229 20.229 30.343 30.343c1.5621 1.5621 4.0948 1.5621 5.6569 0 10.114-10.114 30.343-30.343 30.343-30.343 1.0438-1.0438 0.30453-2.8284-1.1716-2.8284h-64c-1.4761 0-2.2153 1.7847-1.1716 2.8284z" fill="#ff0"/>
   </g>
</svg>
